<?xml version="1.0" encoding="UTF-8"?><svg id="Layer_1" xmlns="http://www.w3.org/2000/svg" width="128" height="128" viewBox="0 0 128 128">
    <defs>
        <style>.cls-1{fill:#231f20;stroke-width:0px;}</style>
    </defs>
    <path class="cls-1" d="M32.08,85.61l2.41-2.15c.29-.26.55-.55.85-.81,1.06-.89,2.12-1.78,3.17-2.67.46-.4.93-.8,1.37-1.21.57-.53,1.1-1.11,1.88-1.41.32,0,.27,0,.29.32,0,.3-.03.84-.3,1.2-.54.58-1.09,1.15-1.65,1.7-.57.55-1.21,1.02-1.85,1.51-.78.57-1.44,1.31-2.15,1.97l-2.36,2.19-1.44,1.37c-.72.69-1.46,1.38-2.13,2.11-.51.58-1,1.16-1.52,1.72-.11.12-.22.25-.34.37-.45.44-.65.53-.94.45-.07-.02-.14-.03-.19-.05-.18-.09-.14-.39.09-.81.35-.61.72-1.23,1.12-1.84.39-.61.91-1.13,1.39-1.68.72-.81,1.49-1.57,2.28-2.31l.03.03Z"/><path class="cls-1" d="M86.94,89.51c-.8-1.05-1.66-2.06-2.56-3.05-.33-.36-.7-.68-1.02-1.04-1.15-1.28-2.34-2.55-3.58-3.77-.55-.54-1.13-1.05-1.71-1.55-.38-.31-.74-.65-1.09-1-.18-.17-.35-.35-.52-.53l-.03-.03-.02-.02h0s0-.01,0-.01h0c.09-.1.02-.03.04-.05h0s0,0,0,0c-.03.03-.04.06-.03.04,0-.02-.02-.05-.05-.08-.05-.05-.17-.19-.26-.18-.1-.03-.03.12-.04.1.03,0-.14-.03-.05-.2.1-.1.27-.45.74-.42.11-.02.3.12.33.11.07.02.13.05.19.07.12.05.25.12.37.2.87.53,1.63,1.19,2.38,1.86.76.67,1.49,1.36,2.19,2.1.83.89,1.83,1.68,2.72,2.56.96.98,1.9,2,2.78,3.06.55.65,1.08,1.32,1.59,1.99.78,1.03,1.5,2.11,2.18,3.2l.82,1.26c.28.41.55.84.75,1.31.09.2.2.39.27.61.24.8.2,1.1-.15,1.38-.08.06-.15.14-.24.19-.28.16-.65-.07-.96-.55-1.04-1.36-1.76-2.87-2.75-4.33-.72-1.08-1.48-2.16-2.32-3.19l.03-.03Z"/><path class="cls-1" d="M41.23,16.32c-3.08,1.57,5.96-4.52,14.43,0,8.73,4.66,1.13,14.82,1.13,14.82l.12,9.07s-6.07,6.09-8.62,6.86c-4.18,1.26-13.77.72-18.39-7.1-.26-.44-4.28,8.35.68,16.5,0,0-5.6-9.37-4.96-16.26.65-6.89,2.84-14.11,4.27-16.09s5.79-6.22,5.79-6.22"/><path class="cls-1" d="M50.42,47.49c-1.63.91-3.49,1.28-5.28,1.57-.67.03-1.33.13-1.99.15-2.36-.09-4.6-.76-6.62-1.75-.86-.52-1.79-.91-2.56-1.53-.5-.38-1.08-.67-1.52-1.13-.47-.43-.88-.91-1.26-1.42-.23-.32,0-.45.45-.45.44.03,1.17.09,1.67.53,1.88,1.45,3.91,2.57,6.14,3.31,1.35.39,2.84.45,4.25.26.39-.05.78-.08,1.17-.13l1.15-.28.58-.14.55-.22,1.11-.43c.86-.46,1.76-.88,2.52-1.51.63-.4,1.14-.96,1.7-1.46.54-.52.96-1.15,1.41-1.74.28-.51.51-1.03.75-1.54.21-.53.34-1.08.53-1.61.09-.23.13-.47.17-.71.23-.88.51-1.11,1.19-1.18.16-.02.31-.05.46-.05.5,0,.81.48.79,1.3-.01.6-.06,1.21-.24,1.8-.16.59-.3,1.21-.55,1.78-.25.58-.57,1.12-.9,1.67-.37.51-.78,1.01-1.18,1.5-.28.39-.67.67-1,1.01-.36.31-.68.67-1.07.93-.78.54-1.53,1.12-2.39,1.52l-.03-.05Z"/><path class="cls-1" d="M67.23,17.14c12.54-1.84,11.35,12.56,2.88,16.23-7.4,3.21-14.4-.33-11.67-6.35,0,0-2.43,3.64-1.4,9.72s9.01,11.3,14.95,11.56,13.98-2.88,16.54-5.89,6.06-7.4,6.62-11.16c.56-3.76-.96-8.86-2.07-10.45-1.98-2.82-7.56-5.96-10.26-6.56-6.49-1.44-15.58,2.89-15.58,2.89Z"/><path class="cls-1" d="M50.72,78.31s2.45,5.55,10.07,5.55c6.77,0,9.31-6.12,9.31-6.12,0,0-6.89,3.14-9.79,2.8s-9.6-2.23-9.6-2.23Z"/><path class="cls-1" d="M89.67,56.38l.11-.99.24-.97c.13-.65.44-1.26.71-1.86.23-.42.47-.84.74-1.24.21-.37.57-.63.84-.94.29-.31.58-.6.93-.82l.99-.72,1.07-.56c.6-.38,1.29-.57,1.92-.83.8-.39,1.72-.42,2.58-.53.27-.02.25.08.07.28-.19.2-.52.55-.94.8-1.52.8-2.93,1.55-4.26,2.45-.4.28-.78.6-1.04,1.01l-.44.59-.34.65c-.54.92-.87,1.95-1.08,3.03l-.11,1.01c-.02.34.01.68.02,1.03,0,.52.13,1.03.2,1.56.15.5.25,1.02.47,1.5.31.75.79,1.4,1.3,1.98.11.13.22.25.31.39.38.49.43.71.24,1.13-.04.1-.07.2-.12.28-.16.29-.55.29-1.07,0-.77-.44-1.37-1.11-1.85-1.85-.47-.74-.89-1.55-1.11-2.42-.22-.63-.27-1.3-.39-1.96,0-.67-.12-1.33-.03-2.01h.05Z"/><path class="cls-1" d="M113.13,83.26c.58-.64,1.01-1.46,1.27-2.34.09-.33.13-.66.18-1,.21-1.19.12-2.45-.15-3.67-.13-.54-.34-1.06-.59-1.54-.35-.6-.76-1.2-1.39-1.53-.19-.11-.17-.13.04-.13.21,0,.62.06,1.03.31,1.37.96,2.19,2.56,2.28,4.17.07.96.17,1.96.03,2.95-.16,1.08-.52,2.14-1.11,3.08-.37.57-.82,1.09-1.34,1.53-.8.66-1.73,1.09-2.67,1.4-.73.23-1.46.44-2.22.51-.17.02-.33.05-.5.05-.62-.01-.82-.1-.94-.37-.03-.06-.06-.12-.08-.19-.05-.21.2-.39.61-.48.62-.14,1.23-.31,1.82-.51.3-.1.58-.21.87-.3.27-.13.57-.21.82-.36.79-.39,1.45-.94,2.02-1.59l.03.02Z"/><path class="cls-1" d="M50.93,75.94c2.95,2.05,6.5,3.18,10.14,3.16,1.36.04,2.59-.15,3.79-.52,2.14-.6,4.08-1.95,5.74-3.63,1.65-1.7,3.03-3.73,4.16-5.9,1-1.93,1.8-3.98,2.46-6.05.83-2.67,1.33-5.43,1.98-8.12.19-.83.44-.76.83.03.4.78.85,2.3.63,4-.45,2.97-1.2,5.89-2.29,8.72-1.19,2.78-2.73,5.47-4.79,7.81-1.23,1.39-2.58,2.76-4.2,3.87-1.6,1.11-3.47,1.97-5.43,2.28-1.09.19-2.13.15-3.17.15-1.04.06-2.08-.13-3.11-.28-2.06-.3-4.05-1.03-5.9-1.95-2.23-1.22-4.32-2.72-6-4.59-2.63-2.75-4.58-6.06-6.08-9.46-1.14-2.65-2.17-5.33-2.72-8.16-.16-.62-.25-1.23-.34-1.87-.07-.59-.13-1.08-.15-1.49,0-.42.03-.75.08-1.03.1-.56.28-.87.59-1.13.14-.12.28-.27.42-.33.48-.22.92.71,1.15,2.31.47,2.39,1.05,4.79,1.87,7.15.19.59.45,1.16.67,1.75.22.59.45,1.17.73,1.73l.79,1.71.91,1.64c1.85,3.21,4.25,6.14,7.29,8.13l-.03.06Z"/><path class="cls-1" d="M55.84,14.5c1.47.78,2.82,1.78,4.01,2.95.59.59,1.14,1.23,1.65,1.95l.24.36.26.46c.16.31.3.62.38.94.07.32.1.65.03.96l-.45.85-.63.78c-.13.14-.24.3-.34.46-.21.32-.43.64-.63.97l-.54,1.03c-.18.34-.3.72-.46,1.07-.56,1.46-.94,3-1.09,4.57-.13,1.57-.06,3.15.24,4.68.3,1.53.89,2.98,1.68,4.28.84,1.37,1.95,2.54,3.32,3.41l.5.35c.17.1.36.19.54.29.36.18.71.39,1.09.56.77.29,1.52.62,2.33.81,2.81.8,5.86.84,8.82.36,2.96-.46,5.85-1.52,8.35-3.08,1.24-.83,2.32-1.7,3.33-2.88,1.03-1.11,1.95-2.32,2.74-3.59,1.55-2.54,2.54-5.44,2.36-8.35-.15-2.57-1.15-5.08-2.83-7.1-1.64-2.04-3.85-3.63-6.26-4.65-3.1-1.33-6.58-1.68-9.82-1.05-1.69.32-3.39.76-5.01,1.33-.8.31-1.6.59-2.38.93-.79.33-1.49.77-2.2,1.22-.92.55-1.21.99-1.24.92,0-.04.17-.53.64-1.45.46-.93,1.45-2.06,2.82-3.2,1.41-1.07,3.27-1.97,5.36-2.61.9-.27,1.91-.54,2.94-.68,1.03-.12,2.06-.16,3.09-.1,2.05.1,4.07.53,5.98,1.24,3.81,1.41,7.26,3.96,9.53,7.49,1.13,1.75,1.93,3.76,2.26,5.85.33,2.09.19,4.24-.33,6.23-1.03,4.04-3.46,7.35-6.17,10.08-1.69,1.73-3.77,3.08-5.93,4.06-2.17,1-4.46,1.68-6.82,2.08-2.35.39-4.77.49-7.17.19-2.4-.3-4.77-1.03-6.9-2.26-2.13-1.21-4.03-2.98-5.3-5.11-1.29-2.12-2.01-4.52-2.24-6.94-.22-2.42.03-4.85.69-7.16.34-1.15.76-2.29,1.33-3.36l.42-.8c.15-.26.33-.51.49-.77.17-.25.32-.51.51-.75l.4-.49c.06-.07.13-.14.17-.22,0-.09-.03-.19-.07-.27-.09-.18-.14-.28-.41-.65-1.68-2.23-4.18-3.97-6.9-4.84-1.36-.44-2.8-.67-4.24-.68-1.44-.04-2.9.3-4.36.48-4.39.84-8.42,3.2-11.34,6.57-2.98,3.35-4.68,7.7-5.43,12.1-1.17,6.88.04,14,2.8,20.18.65,1.35,1.4,2.62,2.23,3.88,1.57,2.32,2.78,3.72,3.58,4.75.79,1.05,1.23,1.69,1.54,2.29.14.28.38.58.44.78.13.31-.36.22-1.34-.32-.97-.53-2.43-1.51-3.91-3.16-2.23-2.41-4.05-5.26-5.41-8.37-.34-.78-.64-1.58-.92-2.39-.23-.81-.47-1.63-.7-2.44-.26-.81-.39-1.65-.56-2.49-.16-.84-.35-1.67-.42-2.53-.49-3.4-.41-6.91.13-10.37.57-3.45,1.6-6.91,3.44-10.01,2.65-4.62,7.04-8.4,12.14-10.17,2.58-.83,5.14-1.34,7.9-1.43,2.76-.03,5.56.65,8.01,1.94l-.02.07Z"/><path class="cls-1" d="M23.6,95.37c.6-.97,1.24-1.92,1.9-2.85.63-.95,1.33-1.85,2.01-2.76.48-.67.94-1.36,1.49-1.99,1.91-2.22,3.94-4.32,6.06-6.31.93-.9,1.85-1.8,2.77-2.69,1.25-1.06,2.35-2.36,4.06-2.83.59-.06.5-.07.38.49-.05.29-.15.64-.27,1.08-.07.21-.12.46-.22.65-.12.18-.26.35-.42.51-1.12,1.17-2.27,2.28-3.44,3.4-1.15,1.13-2.31,2.27-3.48,3.42-1.42,1.36-2.57,3.07-3.77,4.67-1.36,1.74-2.65,3.54-3.88,5.39-.72,1.15-1.48,2.3-2.12,3.5-1.02,1.79-1.97,3.65-2.72,5.55-.56,1.49-.92,3.02-1.29,4.53-.08.33-.15.66-.23,1-.3,1.24-.58,1.58-1.31,1.71-.17.03-.34.08-.5.08-.54.01-.84-.6-.77-1.62.03-.75.13-1.5.27-2.25.14-.75.26-1.52.51-2.25.43-1.48,1.03-2.92,1.64-4.36.98-2.1,2.07-4.14,3.27-6.11l.06.03Z"/><path class="cls-1" d="M92.42,98.3c-.51-.98-.99-1.99-1.57-2.94l-.84-1.45-.9-1.41c-.43-.7-.98-1.31-1.45-1.98-1.66-2.36-3.48-4.66-5.49-6.78-.85-.98-1.82-1.86-2.76-2.74-.62-.55-1.27-1.07-1.85-1.67-.3-.28-.6-.57-.9-.87-.3-.28-.52-.67-.79-1-.31-.44-.22-.45.28-.37.34.05.7.11,1.05.16.42.09.85.27,1.27.53,2.88,1.92,5.57,4.18,7.72,6.96,1.32,1.63,2.83,3.2,4.13,4.91.72.93,1.37,1.92,2.04,2.89.6,1.02,1.26,2,1.8,3.06l1.02,1.93.92,1.97c.47,1,.83,2.04,1.25,3.05.36,1.04.71,2.08,1.07,3.11.25.81.53,1.6.83,2.39.25.8.5,1.61.72,2.43.11.36.2.71.26,1.08.22,1.38.09,1.84-.59,2.22-.15.08-.31.19-.46.25-.53.19-1.08-.3-1.4-1.22-.98-2.73-1.72-5.57-2.77-8.36-.33-1.05-.82-2.05-1.21-3.09-.46-1.01-.92-2.03-1.44-3.02l.06-.04Z"/><path class="cls-1" d="M99.37,67.7c-1.67-.15-3.28-.65-4.74-1.44-1.46-.8-2.76-1.97-3.67-3.36-.69-1-1.21-2.11-1.52-3.27-.54-2.05-.45-4.23.19-6.23.68-1.99,1.98-3.77,3.72-4.95,1.54-1.05,3.33-1.64,5.14-1.81,2.29-.24,4.82.21,6.65,1.79.56.5.1.83-.65.95-.76.11-1.76.15-2.77-.1-1.8-.45-3.77-.43-5.52.2-1.74.61-3.23,1.86-4.17,3.57-1.15,2.06-1.07,4.8-.15,7.05.49,1.25,1.27,2.38,2.28,3.26,1.01.87,2.27,1.52,3.6,1.88,1.63.46,3.42.51,4.98-.04,2.36-.84,4.19-3.07,4.76-5.57.49-1.95.16-3.98-.5-5.74-.18-.38-.33-.76-.55-1.11-.18-.34-.32-.63-.47-.85-.13-.23-.19-.45-.25-.64-.13-.35-.12-.65-.02-1,.05-.16.07-.34.13-.47.1-.22.34-.27.7-.14.37.13.88.42,1.36.97,1.41,1.65,2.23,3.85,2.35,6.12.08,2.27-.51,4.62-1.8,6.62-.96,1.48-2.32,2.72-3.94,3.51-1.67.82-3.47.96-5.15.86v-.05Z"/><path class="cls-1" d="M114.36,72.42c1.06.99,1.86,2.25,2.3,3.59.45,1.34.62,2.73.45,4.16-.15,1.02-.36,2-.81,2.93-.81,1.63-2.19,2.97-3.79,3.73-1.61.76-3.39,1.01-5.09.82-1.51-.18-3.02-.64-4.31-1.51-.82-.55-1.6-1.24-2.14-2.11-.55-.86-.87-1.86-.91-2.85-.02-.63.53-.56,1.13-.2.59.38,1.29.9,1.69,1.55,1.4,2.41,4.84,3.55,7.89,2.75,1.86-.46,3.32-2.06,3.9-3.92.17-.5.3-1.07.36-1.58.05-.53.03-1.08-.04-1.63-.15-1.09-.52-2.16-1.14-3.06-.73-1.14-1.89-1.97-3.18-2.48-1.01-.38-2.02-.6-3.06-.52-1.03.07-2.05.4-2.95.94-1.4.84-2.37,2.2-2.98,3.58-.1.32-.23.62-.3.95-.18.59-.25.98-.47,1.24-.15.27-.36.44-.68.58-.14.06-.28.16-.42.2-.23.07-.43-.03-.61-.33-.18-.29-.34-.78-.32-1.4.09-1.84.92-3.68,2.21-5.13,1.34-1.39,3.11-2.46,5.11-2.83,1.46-.3,3.08-.17,4.44.31,1.35.43,2.64,1.18,3.74,2.16l-.03.04Z"/><path class="cls-1" d="M101.27,61.14c.17-2.45.2-4.9.02-7.35-.05-.65-.54-1.28-1.25-1.25-.64.03-1.3.55-1.25,1.25.18,2.45.15,4.9-.02,7.35-.04.65.61,1.28,1.25,1.25.72-.03,1.2-.55,1.25-1.25h0Z"/><path class="cls-1" d="M96.21,58.34c2.35.33,4.71.03,7.07.04.65,0,1.28-.58,1.25-1.25s-.55-1.24-1.25-1.25c-1.11,0-2.21.06-3.32.09-.57.02-1.14.03-1.71.02-.28,0-.57-.01-.85-.03-.12,0-.25-.02-.37-.03-.09,0-.52-.06-.15-.01-.64-.09-1.37.16-1.54.87-.13.59.18,1.44.87,1.54h0Z"/><path class="cls-1" d="M108.97,81.42c.05-1.79-.14-3.58,0-5.38.05-.59-.55-1.15-1.12-1.12-.65.03-1.07.5-1.12,1.12-.14,1.79.05,3.58,0,5.38-.02.59.53,1.15,1.12,1.12s1.11-.49,1.12-1.12h0Z"/><path class="cls-1" d="M104.7,79.86c1.93.27,3.86.02,5.79.04.59,0,1.15-.52,1.12-1.12s-.49-1.12-1.12-1.12c-.9,0-1.81.05-2.71.08-.46.01-.93.02-1.39.02-.23,0-.46-.01-.69-.02-.1,0-.2-.01-.31-.02-.09,0-.45-.06-.09,0-.31-.04-.58-.05-.87.11-.23.14-.46.4-.52.67-.12.53.16,1.3.79,1.38h0Z"/><path class="cls-1" d="M64.11,53.31l.08,3.01c0,.33.13.65.37.88.22.22.57.38.88.37s.66-.12.88-.37.38-.55.37-.88l-.08-3.01c0-.33-.13-.65-.37-.88-.22-.22-.57-.38-.88-.37s-.66.12-.88.37-.38.55-.37.88h0Z"/><path class="cls-1" d="M53.43,53.6l.08,3.01c0,.33.13.65.37.88.22.22.57.38.88.37s.66-.12.88-.37.38-.55.37-.88l-.08-3.01c0-.33-.13-.65-.37-.88-.22-.22-.57-.38-.88-.37s-.66.12-.88.37-.38.55-.37.88h0Z"/><path class="cls-1" d="M17.45,18.89c-.15,0-.08-.2.09-.53.06-.11.29-.38.34-.4.11-.04.22-.07.31-.08.06,0,.65.25.86.33.21.08.37.2.53.33.31.27.64.54.95.83.07.06.12.14.16.23.13.31.34.54.58.75.04.04.07.08.15.08.15-.01.72.64.75.76.07.29.17.57.24.85.01.04.06.06,0,.14-.11.18-.04.23,0,.31.05.11.09.22.1.35,0,.07-.06.18-.1.27-.04.09-.31.23-.34.23-.11,0-.2.12-.3.19-.03.02-.08.05-.11.07-.07.03-.84-.2-.87-.26,0,0-.17-.17-.34-.34-.17-.17-.35-.35-.4-.38-.05-.03-.04-.1-.05-.16,0-.03-.56-.51-.57-.53-.07-.13-.22-.2-.19-.43,0-.04-.02-.06-.04-.08-.18-.18-.3-.42-.45-.64-.07-.11-.18-.2-.27-.29-.02-.02-.02-.05-.02-.08-.01-.03-.02-.07-.04-.09-.23-.22-.39-.5-.66-.67-.06-.04-.19-.41-.27-.45-.04-.02,0-.32-.05-.31Z"/><path class="cls-1" d="M12.49,25.53c-.02.13-.17-.02-.43-.33-.08-.1-.28-.43-.28-.49,0-.12,0-.24,0-.33,0-.06.44-.5.61-.64.15-.15.34-.23.53-.29.39-.12.78-.23,1.19-.27.09-.01.18,0,.27.03.31.12.61.12.92.11.05,0,.1.02.16-.05.1-.13.95.03,1.03.13.23.2.44.39.64.59.03.03.08.02.07.11-.02.21.07.22.13.27.09.07.16.15.22.26.03.06.01.18,0,.28,0,.09-.19.32-.22.34-.09.05-.13.19-.2.29-.02.03-.05.08-.07.11-.06.05-.7.26-.72.25,0-.02-.63-.09-.7-.07-.04,0-.06-.05-.09-.08-.01-.03-.51.03-.53.02-.09-.04-.19.02-.29-.15-.02-.03-.04-.03-.06-.03-.17.02-.35-.05-.53-.08-.09-.02-.18.02-.27.03-.02,0-.04-.02-.06-.03-.02-.01-.05-.03-.07-.02-.21.05-.45.02-.63.16-.04.02-.34-.06-.38,0-.02.02-.25-.17-.25-.11Z"/><path class="cls-1" d="M13.39,32.96c.01.16-.21.02-.57-.29-.12-.1-.42-.44-.44-.51-.04-.13-.08-.26-.09-.37-.01-.06.27-.61.36-.81.08-.2.22-.33.36-.45.3-.25.58-.51.89-.74.07-.05.15-.08.24-.09.32-.04.57-.19.79-.39.04-.03.09-.05.09-.14,0-.16.68-.59.82-.54.31.04.59.03.87.05.04,0,.06-.04.13.03.16.17.21.1.29.09.11-.02.22-.03.35,0,.06.01.16.1.24.17.08.06.17.35.17.39,0,.11.09.22.14.34.02.04.04.09.05.12.02.07-.26.81-.31.85-.02,0-.62.58-.67.67-.03.05-.09.03-.15.02-.03,0-.5.45-.52.46-.13.04-.2.17-.41.07-.04-.02-.06,0-.08.02-.18.14-.41.19-.63.28-.11.04-.19.13-.29.19-.02.01-.05,0-.08,0-.03,0-.07,0-.09.01-.21.17-.5.25-.67.48-.04.05-.42.07-.46.14-.02.04-.33-.12-.33-.05Z"/></svg>